<?xml version="1.0" standalone="no"?>
<!DOCTYPE svg PUBLIC "-//W3C//DTD SVG 20010904//EN"
 "http://www.w3.org/TR/2001/REC-SVG-20010904/DTD/svg10.dtd">
<svg version="1.0" xmlns="http://www.w3.org/2000/svg"
 width="1024.000000pt" height="1024.000000pt" viewBox="0 0 1024.000000 1024.000000"
 preserveAspectRatio="xMidYMid meet">
<metadata>
Created by potrace 1.14, written by Peter Selinger 2001-2017
</metadata>
<g transform="translate(0.000000,1024.000000) scale(0.100000,-0.100000)"
fill="#000000" stroke="none">
<path d="M917 9904 c-1 -1 -29 -4 -62 -7 -201 -19 -352 -158 -385 -355 -12
-74 -10 -6016 2 -6062 4 -14 9 -56 12 -95 4 -38 8 -81 10 -95 3 -14 12 -63 20
-110 29 -164 43 -223 88 -380 28 -97 85 -259 126 -355 31 -74 151 -310 191
-375 22 -36 53 -88 70 -116 16 -28 36 -57 43 -65 7 -8 25 -33 41 -56 102 -158
362 -442 538 -589 101 -84 246 -194 257 -194 4 -1 23 -14 42 -30 19 -17 38
-30 43 -30 7 0 22 -9 96 -59 37 -26 308 -165 386 -198 209 -89 500 -175 710
-208 28 -5 52 -9 55 -10 3 0 32 -5 65 -9 32 -4 67 -9 77 -11 136 -27 692 -26
898 0 92 12 287 46 355 61 166 38 449 126 470 145 5 5 15 9 23 9 31 0 296 131
447 221 346 205 599 424 876 756 66 79 223 310 280 410 215 378 357 798 405
1189 2 23 6 51 9 62 3 17 12 117 21 237 4 57 4 387 0 470 -4 69 -16 196 -21
225 -2 9 -6 43 -10 75 -4 33 -9 67 -10 75 -52 289 -103 473 -195 706 -347 871
-1066 1561 -1930 1850 -123 42 -344 99 -414 109 -27 3 -52 8 -55 10 -10 6
-253 34 -351 41 -177 12 -485 6 -625 -11 -16 -2 -52 -7 -80 -10 -96 -12 -311
-55 -400 -80 -49 -14 -97 -27 -105 -29 -96 -24 -336 -123 -485 -200 -414 -216
-739 -484 -999 -826 -27 -36 -52 -68 -56 -72 -3 -4 -6 788 -5 1760 0 972 -3
1797 -8 1835 -25 217 -168 359 -387 385 -39 5 -71 8 -73 6z m3064 -3598 c631
-37 1211 -320 1629 -795 65 -74 191 -241 211 -279 8 -15 26 -45 41 -67 44 -66
154 -294 192 -396 78 -212 129 -435 154 -674 14 -144 6 -592 -13 -665 -2 -8
-6 -37 -10 -65 -18 -146 -81 -378 -151 -553 -271 -681 -860 -1214 -1559 -1411
-63 -17 -157 -39 -195 -46 -19 -3 -60 -10 -90 -15 -151 -25 -544 -35 -685 -17
-240 31 -420 74 -596 142 -790 307 -1347 994 -1494 1843 -16 95 -19 117 -32
257 -17 171 -5 555 21 692 2 10 7 38 10 63 24 176 117 463 221 675 190 389
449 688 798 922 110 74 437 243 470 243 3 0 16 4 29 9 13 5 25 9 28 9 3 1 32
11 65 22 151 53 365 93 570 106 55 4 101 7 102 8 3 3 197 -2 284 -8z"/>
<path d="M9168 1746 c-1 -2 -34 -6 -73 -9 -124 -11 -218 -44 -312 -109 -168
-115 -276 -271 -311 -451 -14 -67 -6 -270 12 -332 64 -213 240 -401 443 -470
171 -59 376 -45 541 36 83 41 194 136 255 219 46 63 95 175 112 255 17 83 19
237 3 290 -4 16 -11 43 -14 59 -2 16 -17 54 -31 85 -108 232 -322 394 -548
417 -27 3 -55 7 -62 9 -6 2 -13 2 -15 1z"/>
</g>
</svg>
